<?xml version="1.0" encoding="utf-8"?>
<svg xmlns="http://www.w3.org/2000/svg" style="margin: auto; display: block; shape-rendering: auto; background: none;" width="280" height="250" preserveAspectRatio="xMidYMid">
<style type="text/css">
  text {
    text-anchor: middle; font-size: 76px; opacity: 0;
  }
</style>
<g style="transform-origin:140px 125px;transform:scale(1)">
<g transform="translate(140,125)">
  <g transform="translate(0,0)"><g class="path" style="transform: matrix(1, 0, 0, 1, 0, 0); transform-origin: -118.9px -5.89665px; animation: 1s linear -0.5775s infinite normal forwards running bounce-09e2c392-3b9e-4064-b881-d138a50023cc;"><path d="M1.60-51.53L1.60-53.20L28.96-53.20L28.96-51.53L20.90-51.53L20.90-1.67L23.64-1.67L23.64-1.67Q30.10-1.67 33.93-5.62L33.93-5.62L33.93-5.62Q37.77-9.58 41.72-17.78L41.72-17.78L43.32-17.78L41.88 0L1.60 0L1.60-1.67L6.08-1.67L6.08-51.53L1.60-51.53" fill="#51cacc" stroke="none" stroke-width="none" transform="translate(-141.36001586914062,20.703349304199218)" style="fill: rgb(81, 202, 204);"></path></g><g class="path" style="transform: matrix(1, 0, 0, 1, 0, 0); transform-origin: -75.43px 2.61335px; animation: 1s linear -0.495s infinite normal forwards running bounce-09e2c392-3b9e-4064-b881-d138a50023cc;"><path d="M70.60-14.97L70.60-14.97L70.60-21.43L70.60-21.43Q70.60-28.80 69.81-32.19L69.81-32.19L69.81-32.19Q69.01-35.57 66.12-35.57L66.12-35.57L66.12-35.57Q64.45-35.57 63.42-34.62L63.42-34.62L63.42-34.62Q62.40-33.67 61.94-31.46L61.94-31.46L61.94-31.46Q61.26-28.04 61.26-21.05L61.26-21.05L61.26-15.12L61.26-15.12Q61.26-6.84 61.75-5.17L61.75-5.17L61.75-5.17Q62.24-3.50 62.78-2.43L62.78-2.43L62.78-2.43Q63.61-0.61 66.04-0.61L66.04-0.61L66.04-0.61Q69.01-0.61 69.92-4.03L69.92-4.03L69.92-4.03Q70.60-6.46 70.60-14.97zM65.89 0.76L65.89 0.76Q56.39 0.76 51.53-4.10L51.53-4.10L51.53-4.10Q46.66-8.97 46.66-18.05L46.66-18.05L46.66-18.05Q46.66-27.13 51.87-32.03L51.87-32.03L51.87-32.03Q57.08-36.94 66.50-36.94L66.50-36.94L66.50-36.94Q75.92-36.94 80.56-32.41L80.56-32.41L80.56-32.41Q85.20-27.89 85.20-18.62L85.20-18.62L85.20-18.62Q85.20 0.76 65.89 0.76L65.89 0.76" fill="#51cacc" stroke="none" stroke-width="none" transform="translate(-141.36001586914062,20.703349304199218)" style="fill: rgb(81, 202, 204);"></path></g><g class="path" style="transform: matrix(1, 0, 0, 1, 0, 0); transform-origin: -33.175px 2.61335px; animation: 1s linear -0.4125s infinite normal forwards running bounce-09e2c392-3b9e-4064-b881-d138a50023cc;"><path d="M105.56-17.86L105.56-17.86L107.77-17.86L107.77-23.71L107.77-23.71Q107.77-30.93 106.97-33.40L106.97-33.40L106.97-33.40Q106.17-35.87 103.89-35.87L103.89-35.87L103.89-35.87Q102.52-35.87 101.42-35.15L101.42-35.15L101.42-35.15Q100.32-34.43 100.32-33.17L100.32-33.17L100.32-33.17Q100.32-31.92 100.78-30.63L100.78-30.63L102.68-30.63L102.68-30.63Q103.28-29.03 103.28-26.79L103.28-26.79L103.28-26.79Q103.28-24.55 101.38-22.91L101.38-22.91L101.38-22.91Q99.48-21.28 96.60-21.28L96.60-21.28L96.60-21.28Q90.06-21.28 90.06-27.59L90.06-27.59L90.06-27.59Q90.06-36.94 105.94-36.94L105.94-36.94L105.94-36.94Q114.99-36.94 118.45-33.86L118.45-33.86L118.45-33.86Q121.90-30.78 121.90-22.57L121.90-22.57L121.90-7.14L121.90-7.14Q121.90-3.19 124.11-3.19L124.11-3.19L124.11-3.19Q126.69-3.19 127.15-11.02L127.15-11.02L128.29-10.94L128.29-10.94Q127.98-4.26 125.78-1.75L125.78-1.75L125.78-1.75Q123.58 0.76 118.56 0.76L118.56 0.76L118.56 0.76Q109.44 0.76 108.07-4.86L108.07-4.86L108.07-4.86Q107.08-1.98 105.11-0.61L105.11-0.61L105.11-0.61Q103.13 0.76 99.33 0.76L99.33 0.76L99.33 0.76Q88.08 0.76 88.08-8.44L88.08-8.44L88.08-8.44Q88.08-13.83 92.38-15.85L92.38-15.85L92.38-15.85Q96.67-17.86 105.56-17.86zM102.52-8.51L102.52-8.51Q102.52-4.56 102.94-3.42L102.94-3.42L102.94-3.42Q103.36-2.28 104.54-2.28L104.54-2.28L104.54-2.28Q105.72-2.28 106.74-4.22L106.74-4.22L106.74-4.22Q107.77-6.16 107.77-9.58L107.77-9.58L107.77-16.64L107.24-16.64L107.24-16.64Q102.52-16.64 102.52-9.73L102.52-9.73L102.52-8.51" fill="#51cacc" stroke="none" stroke-width="none" transform="translate(-141.36001586914062,20.703349304199218)" style="fill: rgb(81, 202, 204);"></path></g><g class="path" style="transform: matrix(1, 0, 0, 1, 0, 0); transform-origin: 9.42498px -7.41665px; animation: 1s linear -0.33s infinite normal forwards running bounce-09e2c392-3b9e-4064-b881-d138a50023cc;"><path d="M144.48-15.73L144.48-15.73Q144.48-7.75 145.31-5.13L145.31-5.13L145.31-5.13Q146.15-2.51 148.39-2.51L148.39-2.51L148.39-2.51Q150.63-2.51 152.27-4.48L152.27-4.48L152.27-4.48Q153.90-6.46 153.90-10.34L153.90-10.34L153.90-26.90L153.90-26.90Q153.90-30.17 152.61-32.45L152.61-32.45L152.61-32.45Q151.32-34.73 148.81-34.73L148.81-34.73L148.81-34.73Q146.30-34.73 145.39-31.39L145.39-31.39L145.39-31.39Q144.48-28.04 144.48-19.68L144.48-19.68L144.48-15.73zM171.76 0L154.89 0L154.05-5.32L154.05-5.32Q151.47 0.76 143.56 0.76L143.56 0.76L143.56 0.76Q137.03 0.76 133.42-3.95L133.42-3.95L133.42-3.95Q129.81-8.66 129.81-18.01L129.81-18.01L129.81-18.01Q129.81-36.94 144.86-36.94L144.86-36.94L144.86-36.94Q151.54-36.94 153.67-33.21L153.67-33.21L153.67-55.63L149.04-55.63L149.04-57L168.04-57L168.04-1.37L171.76-1.37L171.76 0" fill="#51cacc" stroke="none" stroke-width="none" transform="translate(-141.36001586914062,20.703349304199218)" style="fill: rgb(81, 202, 204);"></path></g><g class="path" style="transform: matrix(1, 0, 0, 1, 0, 0); transform-origin: 43.74px -27.7866px; animation: 1s linear -0.2475s infinite normal forwards running bounce-09e2c392-3b9e-4064-b881-d138a50023cc;"><path d="M184.91-41.42L184.91-41.42L184.91-41.42Q180.88-41.42 179.17-43.47L179.17-43.47L179.17-43.47Q177.46-45.52 177.46-48.56L177.46-48.56L177.46-48.56Q177.46-51.60 179.32-53.58L179.32-53.58L179.32-53.58Q181.18-55.56 184.98-55.56L184.98-55.56L184.98-55.56Q188.78-55.56 190.76-53.77L190.76-53.77L190.76-53.77Q192.74-51.98 192.74-48.68L192.74-48.68L192.74-48.68Q192.74-45.37 190.84-43.40L190.84-43.40L190.84-43.40Q188.94-41.42 184.91-41.42" fill="#51cacc" stroke="none" stroke-width="none" transform="translate(-141.36001586914062,20.703349304199218)" style="fill: rgb(81, 202, 204);"></path></g><g class="path" style="transform: matrix(1, 0, 0, 1, 0, 0); transform-origin: 43.51px 2.61335px; animation: 1s linear -0.165s infinite normal forwards running bounce-09e2c392-3b9e-4064-b881-d138a50023cc;"><path d="M173.43-34.81L173.43-36.18L192.05-36.18L192.05-1.37L196.31-1.37L196.31 0L173.74 0L173.74-1.37L177.92-1.37L177.92-34.81L173.43-34.81" fill="#51cacc" stroke="none" stroke-width="none" transform="translate(-141.36001586914062,20.703349304199218)" style="fill: rgb(81, 202, 204);"></path></g><g class="path" style="transform: matrix(1, 0, 0, 1, 0, 0); transform-origin: 79.46px 2.23335px; animation: 1s linear -0.0825s infinite normal forwards running bounce-09e2c392-3b9e-4064-b881-d138a50023cc;"><path d="M197.98-34.81L197.98-36.18L216.30-36.18L216.30-29.18L216.30-29.18Q217.51-32.68 220.02-34.81L220.02-34.81L220.02-34.81Q222.53-36.94 227.62-36.94L227.62-36.94L227.62-36.94Q239.40-36.94 239.40-24.24L239.40-24.24L239.40-1.37L243.66-1.37L243.66 0L222.15 0L222.15-1.37L225.26-1.37L225.26-26.07L225.26-26.07Q225.26-30.63 224.66-31.96L224.66-31.96L224.66-31.96Q224.05-33.29 222.45-33.29L222.45-33.29L222.45-33.29Q220.02-33.29 218.16-30.10L218.16-30.10L218.16-30.10Q216.30-26.90 216.30-22.34L216.30-22.34L216.30-1.37L219.56-1.37L219.56 0L197.98 0L197.98-1.37L202.16-1.37L202.16-34.81L197.98-34.81" fill="#51cacc" stroke="none" stroke-width="none" transform="translate(-141.36001586914062,20.703349304199218)" style="fill: rgb(81, 202, 204);"></path></g><g class="path" style="transform: matrix(1, 0, 0, 1, 0, 0); transform-origin: 122.36px 6.79335px; animation: 1s linear 0s infinite normal forwards running bounce-09e2c392-3b9e-4064-b881-d138a50023cc;"><path d="M275.12-40.13L275.12-40.13L277.25-41.42L277.25-41.42Q277.70-43.78 275.42-43.78L275.42-43.78L275.42-43.78Q272.16-43.78 272.16-38.76L272.16-38.76L272.16-38.76Q272.16-36.78 272.69-34.20L272.69-34.20L272.69-34.20Q278.46-30.32 278.46-24.28L278.46-24.28L278.46-24.28Q278.46-18.24 274.28-14.90L274.28-14.90L274.28-14.90Q270.10-11.55 262.96-11.55L262.96-11.55L262.96-11.55Q260.00-11.55 256.80-12.16L256.80-12.16L256.80-12.16Q253.46-10.03 253.46-8.97L253.46-8.97L253.46-8.97Q253.46-7.90 258.32-7.90L258.32-7.90L266.08-7.90L266.08-7.90Q283.33-7.90 283.33 4.48L283.33 4.48L283.33 4.48Q283.33 11.17 278.12 15.09L278.12 15.09L278.12 15.09Q272.92 19 261.90 19L261.90 19L261.90 19Q243.12 19 243.12 10.87L243.12 10.87L243.12 10.87Q243.12 6.46 248.98 4.79L248.98 4.79L253.54 6.84L253.54 6.84Q252.93 9.04 252.93 11.02L252.93 11.02L252.93 11.02Q252.93 17.56 262.66 17.56L262.66 17.56L262.66 17.56Q268.58 17.56 271.78 15.35L271.78 15.35L271.78 15.35Q274.97 13.15 274.97 9.88L274.97 9.88L274.97 9.88Q274.97 6.61 273.03 5.51L273.03 5.51L273.03 5.51Q271.09 4.41 265.32 4.41L265.32 4.41L257.94 4.41L257.94 4.41Q251.79 4.41 249.13 2.36L249.13 2.36L249.13 2.36Q246.47 0.30 246.47-2.70L246.47-2.70L246.47-2.70Q246.47-5.70 248.37-7.71L248.37-7.71L248.37-7.71Q250.27-9.73 255.13-12.69L255.13-12.69L255.13-12.69Q246.32-15.20 246.32-24.24L246.32-24.24L246.32-24.24Q246.32-29.94 250.42-33.44L250.42-33.44L250.42-33.44Q254.52-36.94 262.73-36.94L262.73-36.94L262.73-36.94Q267.67-36.94 271.17-35.04L271.17-35.04L271.17-35.04Q270.71-37.09 270.71-38.76L270.71-38.76L270.71-38.76Q270.71-43.02 272.99-44.92L272.99-44.92L272.99-44.92Q275.27-46.82 278.08-46.82L278.08-46.82L278.08-46.82Q280.90-46.82 282.61-45.33L282.61-45.33L282.61-45.33Q284.32-43.85 284.32-41.27L284.32-41.27L284.32-41.27Q284.32-38.68 282.95-37.43L282.95-37.43L282.95-37.43Q281.58-36.18 279.64-36.18L279.64-36.18L279.64-36.18Q277.70-36.18 276.45-37.20L276.45-37.20L276.45-37.20Q275.20-38.23 275.12-40.13zM259.01-25.92L259.01-25.92L259.01-21.81L259.01-21.81Q259.01-16.72 259.88-14.90L259.88-14.90L259.88-14.90Q260.76-13.07 262.54-13.07L262.54-13.07L262.54-13.07Q264.33-13.07 265.13-14.86L265.13-14.86L265.13-14.86Q265.92-16.64 265.92-22.19L265.92-22.19L265.92-25.92L265.92-25.92Q265.92-31.84 265.16-33.71L265.16-33.71L265.16-33.71Q264.40-35.57 262.62-35.57L262.62-35.57L262.62-35.57Q260.83-35.57 259.92-33.63L259.92-33.63L259.92-33.63Q259.01-31.69 259.01-25.92" fill="#51cacc" stroke="none" stroke-width="none" transform="translate(-141.36001586914062,20.703349304199218)" style="fill: rgb(81, 202, 204);"></path></g></g>
</g>
</g>
<style id="bounce-09e2c392-3b9e-4064-b881-d138a50023cc" data-anikit="">@keyframes bounce-09e2c392-3b9e-4064-b881-d138a50023cc
{
  0% {
    animation-timing-function: cubic-bezier(0.1361,0.2514,0.2175,0.8786);
    transform: translate(0,0px) scaleY(1);
  }
  37% {
    animation-timing-function: cubic-bezier(0.7674,0.1844,0.8382,0.7157);
    transform: translate(0,-39.96px) scaleY(1);
  }
  72% {
    animation-timing-function: cubic-bezier(0.1118,0.2149,0.2172,0.941);
    transform: translate(0,0px) scaleY(1);
  }
  87% {
    animation-timing-function: cubic-bezier(0.7494,0.2259,0.8209,0.6963);
    transform: translate(0,19.900000000000002px) scaleY(0.602);
  }
  100% {
    transform: translate(0,0px) scaleY(1);
  }
}</style></svg>